<svg width="24" height="25" viewBox="0 0 24 25" fill="none" xmlns="http://www.w3.org/2000/svg">
<g clip-path="url(#clip0_51_289)">
<path fill-rule="evenodd" clip-rule="evenodd" d="M19.5 11C18.9578 10.9998 18.42 11.0979 17.9128 11.2897L15.5559 7.25H18C18.4142 7.25 18.75 7.58579 18.75 8C18.75 8.41421 19.0858 8.75 19.5 8.75C19.9142 8.75 20.25 8.41421 20.25 8C20.25 6.75736 19.2426 5.75 18 5.75H14.25C13.9824 5.75061 13.7353 5.8938 13.6018 6.12574C13.4682 6.35768 13.4684 6.64321 13.6022 6.875L14.6944 8.75H9.30562L7.77281 6.125C7.63914 5.89348 7.39234 5.75061 7.125 5.75H4.5C4.08579 5.75 3.75 6.08579 3.75 6.5C3.75 6.91421 4.08579 7.25 4.5 7.25H6.69469L7.98 9.45406L6.50719 11.4744C4.40913 10.4244 1.85651 11.1575 0.63523 13.1607C-0.586048 15.1638 -0.0684541 17.7687 1.82588 19.1528C3.72022 20.5369 6.35918 20.2384 7.89645 18.4661C9.43373 16.6938 9.35634 14.0391 7.71844 12.3594L8.805 10.8687L11.7272 15.875C11.8516 16.1249 12.1046 16.2851 12.3837 16.2906C12.6629 16.2961 12.922 16.1461 13.0562 15.9013C13.1904 15.6565 13.1776 15.3574 13.0228 15.125L10.1803 10.25H15.5691L16.6181 12.0472C14.9416 13.4484 14.5139 15.8515 15.6041 17.7452C16.6942 19.6388 18.9872 20.4757 21.0408 19.7294C23.0945 18.9832 24.3153 16.8696 23.9355 14.7178C23.5557 12.566 21.685 10.9981 19.5 11ZM7.5 15.5C7.50037 16.8172 6.64144 17.9806 5.38248 18.3681C4.12352 18.7556 2.75907 18.2765 2.01871 17.187C1.27834 16.0975 1.33527 14.6525 2.15905 13.6247C2.98283 12.5968 4.38074 12.2266 5.60531 12.7119L3.89438 15.0556C3.72475 15.2714 3.68651 15.5625 3.79467 15.8148C3.90283 16.067 4.14012 16.24 4.41335 16.2659C4.68657 16.2917 4.95209 16.1662 5.10563 15.9388L6.81656 13.595C7.25899 14.1312 7.50066 14.8048 7.5 15.5ZM19.5 18.5C18.2848 18.4991 17.1902 17.7651 16.7279 16.6413C16.2656 15.5175 16.5269 14.2258 17.3897 13.37L18.8522 15.875C18.9766 16.1249 19.2296 16.2851 19.5087 16.2906C19.7879 16.2961 20.047 16.1461 20.1812 15.9013C20.3154 15.6565 20.3026 15.3574 20.1478 15.125L18.6844 12.6134C19.8113 12.2944 21.0208 12.6604 21.7818 13.5505C22.5429 14.4407 22.7163 15.6924 22.226 16.756C21.7356 17.8196 20.6712 18.5006 19.5 18.5Z" fill="#1C1C21"/>
</g>
<defs>
<clipPath id="clip0_51_289">
<rect width="24" height="24" fill="white" transform="translate(0 0.5)"/>
</clipPath>
</defs>
</svg>
