<svg width="20" height="20" viewBox="0 0 20 20" fill="none" xmlns="http://www.w3.org/2000/svg">
<path fill-rule="evenodd" clip-rule="evenodd" d="M10 0.25C6.57597 0.249253 3.40249 2.04466 1.63954 4.97997C-0.123413 7.91527 -0.217421 11.5602 1.39188 14.5825L0.327812 17.7747C0.148045 18.3137 0.288308 18.9081 0.69011 19.3099C1.09191 19.7117 1.68626 19.852 2.22531 19.6722L5.4175 18.6081C8.99938 20.5133 13.3867 20.0013 16.4336 17.3225C19.4806 14.6438 20.5503 10.3582 19.1197 6.56183C17.689 2.76543 14.057 0.251664 10 0.25ZM10 18.25C8.54967 18.251 7.12478 17.8691 5.86938 17.1428C5.68344 17.035 5.46018 17.0121 5.25625 17.08L1.75 18.25L2.91906 14.7437C2.98723 14.5399 2.9647 14.3167 2.85719 14.1306C0.987404 10.8979 1.52233 6.8124 4.16133 4.17005C6.80034 1.52772 10.8852 0.98763 14.1202 2.85333C17.3553 4.71903 18.9336 8.52517 17.9682 12.1327C17.0028 15.7402 13.7345 18.2494 10 18.25Z" fill="#3D404A"/>
</svg>
