<svg width="22" height="15" viewBox="0 0 22 15" fill="none" xmlns="http://www.w3.org/2000/svg">
<path fill-rule="evenodd" clip-rule="evenodd" d="M20 0H2C1.17157 0 0.5 0.671573 0.5 1.5V13.5C0.5 14.3284 1.17157 15 2 15H20C20.8284 15 21.5 14.3284 21.5 13.5V1.5C21.5 0.671573 20.8284 0 20 0ZM20 1.5V3.75H2V1.5H20ZM20 13.5H2V5.25H20V13.5ZM18.5 11.25C18.5 11.6642 18.1642 12 17.75 12H14.75C14.3358 12 14 11.6642 14 11.25C14 10.8358 14.3358 10.5 14.75 10.5H17.75C18.1642 10.5 18.5 10.8358 18.5 11.25ZM12.5 11.25C12.5 11.6642 12.1642 12 11.75 12H10.25C9.83579 12 9.5 11.6642 9.5 11.25C9.5 10.8358 9.83579 10.5 10.25 10.5H11.75C12.1642 10.5 12.5 10.8358 12.5 11.25Z" fill="#1C1C21"/>
</svg>
