<svg width="13" height="13" viewBox="0 0 13 13" fill="none" xmlns="http://www.w3.org/2000/svg">
<path d="M8.92969 4.03906L12.2812 4.53125C12.5625 4.57812 12.7969 4.76562 12.8906 5.04688C12.9844 5.30469 12.9141 5.60938 12.7031 5.79688L10.2656 8.21094L10.8516 11.6328C10.8984 11.9141 10.7812 12.1953 10.5469 12.3594C10.3125 12.5469 10.0078 12.5469 9.75 12.4297L6.75 10.8125L3.72656 12.4297C3.49219 12.5469 3.16406 12.5469 2.95312 12.3594C2.71875 12.1953 2.60156 11.9141 2.64844 11.6328L3.21094 8.21094L0.773438 5.79688C0.5625 5.60938 0.492188 5.30469 0.585938 5.04688C0.679688 4.76562 0.914062 4.57812 1.19531 4.53125L4.57031 4.03906L6.07031 0.921875C6.1875 0.664062 6.44531 0.5 6.75 0.5C7.03125 0.5 7.28906 0.664062 7.40625 0.921875L8.92969 4.03906Z" fill="#facd15"/>
</svg>
