<svg width="22" height="21" viewBox="0 0 22 21" fill="none" xmlns="http://www.w3.org/2000/svg">
<path fill-rule="evenodd" clip-rule="evenodd" d="M21.4249 8.12099C21.2392 7.5487 20.7295 7.14273 20.1302 7.08974L14.5624 6.60974L12.3799 1.41974V1.41974C12.1475 0.862889 11.6033 0.500244 10.9999 0.500244C10.3965 0.500244 9.85224 0.862889 9.61989 1.41974L7.44395 6.60974L1.86958 7.09256C1.26777 7.14313 0.754979 7.54968 0.568488 8.1241C0.381997 8.69851 0.55818 9.32875 1.01551 9.72318L5.24458 13.4188L3.97708 18.9069C3.84005 19.4941 4.06791 20.1062 4.55551 20.4609C5.04311 20.8155 5.69567 20.8438 6.21208 20.5326L10.9933 17.6263L15.7849 20.5326C16.3013 20.8438 16.9539 20.8155 17.4415 20.4609C17.9291 20.1062 18.1569 19.4941 18.0199 18.9069L16.7533 13.4132L20.9815 9.72318C21.4388 9.32736 21.6136 8.69562 21.4249 8.12099V8.12099ZM19.998 8.58974L15.7699 12.2797C15.3505 12.6445 15.1673 13.2113 15.2936 13.7526L16.564 19.2501V19.2501L11.7761 16.3438C11.2999 16.0538 10.7017 16.0538 10.2255 16.3438L5.44426 19.2501V19.2501L6.70614 13.7563C6.83252 13.2151 6.64925 12.6483 6.22989 12.2835L1.99989 8.59537C1.99955 8.59257 1.99955 8.58973 1.99989 8.58693L7.57239 8.10506C8.12686 8.05618 8.60867 7.7043 8.82395 7.19099L10.9999 2.00756L13.1749 7.19099C13.3902 7.7043 13.872 8.05618 14.4265 8.10506L19.9999 8.58693C19.9999 8.58693 19.9999 8.59256 19.9999 8.59349L19.998 8.58974Z" fill="#3D404A"/>
</svg>
